<svg width="187" height="254" viewBox="0 0 187 254" fill="none" xmlns="http://www.w3.org/2000/svg">
<rect width="187" height="187" rx="93.5" fill="#B2A0D9"/>
<rect x="20.1387" y="20.1384" width="146.723" height="146.723" rx="73.3615" fill="#6B49B7"/>
<path d="M138.092 71.9231L84.1501 123.708L51.7847 92.6369" stroke="white" stroke-width="20" stroke-linecap="round" stroke-linejoin="round"/>
<path d="M52.0312 253.938V221.875H42V221.641L43.8984 217.609H66.75V217.844L64.8516 221.875H56.7188V251.828L52.2656 253.938H52.0312Z" fill="white"/>
<path d="M73.8984 253C69.2109 253 66.8672 250.656 66.8672 245.969V228.391L71.3203 226.281H71.5547V245.969C71.5547 247.844 72.3359 248.781 73.8984 248.781H79.2891C80.8516 248.781 81.6328 247.844 81.6328 245.969V228.391L86.0859 226.281H86.3203V245.969C86.3203 250.656 83.9766 253 79.2891 253H73.8984Z" fill="white"/>
<path d="M99.2109 248.781H109.523C111.867 248.781 113.039 247.453 113.039 244.797V225.812C113.039 223.156 111.867 221.828 109.523 221.828H99.2109V248.781ZM94.5234 253V218.781L97.0078 217.609H109.523C114.992 217.609 117.727 220.344 117.727 225.812V244.797C117.727 250.266 114.992 253 109.523 253H94.5234Z" fill="white"/>
<path d="M132.961 253C128.273 253 125.93 250.656 125.93 245.969V228.391L130.383 226.281H130.617V245.969C130.617 247.844 131.398 248.781 132.961 248.781H138.352C139.914 248.781 140.695 247.844 140.695 245.969V228.391L145.148 226.281H145.383V245.969C145.383 250.656 143.039 253 138.352 253H132.961ZM138.422 216.297H138.656L142.781 218.266L137.602 225.672H137.367L134.625 224.383L138.422 216.297Z" fill="white"/>
</svg>
